<svg width="126" height="18" viewBox="0 0 126 18" fill="none" xmlns="http://www.w3.org/2000/svg">
<path d="M116.434 8.74219C116.434 8.26004 116.384 7.88839 116.314 7.51674H109.363V10.048H113.541C113.371 11.1228 112.276 13.2221 109.363 13.2221C106.852 13.2221 104.802 11.1429 104.802 8.57143C104.802 6 106.852 3.92076 109.363 3.92076C110.799 3.92076 111.753 4.53348 112.296 5.0558L114.295 3.13728C113.009 1.93192 111.352 1.2087 109.363 1.2087C105.295 1.2087 102 4.50335 102 8.57143C102 12.6395 105.295 15.9342 109.363 15.9342C113.612 15.9342 116.434 12.9509 116.434 8.74219ZM125.143 7.51674H123.044V5.41741H120.934V7.51674H118.835V9.62612H120.934V11.7254H123.044V9.62612H125.143V7.51674Z" fill="#151439" fill-opacity="0.4"/>
<path d="M65.5357 0.857142H55.8929C54.2958 0.857142 53 2.1529 53 3.75V13.3929C53 14.99 54.2958 16.2857 55.8929 16.2857H61.2366V10.3092H59.2277V7.97879H61.2366V6.26116C61.2366 4.27232 62.4621 3.1875 64.24 3.1875C65.0837 3.1875 65.817 3.24777 66.0279 3.2779V5.35714L64.8025 5.36719C63.8281 5.36719 63.6473 5.8192 63.6473 6.49219V7.97879H65.9475L65.6462 10.3092H63.6473V16.2857H65.5357C67.1328 16.2857 68.4286 14.99 68.4286 13.3929V3.75C68.4286 2.1529 67.1328 0.857142 65.5357 0.857142Z" fill="#151439" fill-opacity="0.4"/>
<path d="M16.2723 3.66964C15.6897 3.92076 15.0569 4.10156 14.404 4.17188C15.077 3.77009 15.5893 3.13728 15.8304 2.38393C15.2076 2.75558 14.5045 3.02679 13.7712 3.16741C13.1786 2.5346 12.3348 2.14286 11.4007 2.14286C9.60268 2.14286 8.15625 3.59933 8.15625 5.38728C8.15625 5.63839 8.18638 5.88951 8.23661 6.13058C5.54464 5.98995 3.14397 4.70424 1.54688 2.73549C1.26562 3.21763 1.10491 3.77009 1.10491 4.37277C1.10491 5.49777 1.67746 6.49219 2.55134 7.07478C2.01897 7.05469 1.51674 6.90402 1.08482 6.66295C1.08482 6.67299 1.08482 6.69308 1.08482 6.70312C1.08482 8.28013 2.19978 9.58594 3.68638 9.88728C3.41518 9.95759 3.12388 9.99777 2.83259 9.99777C2.62165 9.99777 2.42076 9.97768 2.21987 9.94754C2.6317 11.2333 3.82701 12.1674 5.25335 12.1975C4.13839 13.0714 2.74219 13.5837 1.22545 13.5837C0.954241 13.5837 0.703125 13.5737 0.441964 13.5435C1.87835 14.4676 3.58594 15 5.42411 15C11.3906 15 14.6551 10.058 14.6551 5.76897C14.6551 5.62835 14.6551 5.48772 14.6451 5.3471C15.2779 4.88504 15.8304 4.3125 16.2723 3.66964Z" fill="#151439" fill-opacity="0.4"/>
</svg>
